<svg width="300" height="64" viewBox="0 0 300 64" fill="none" xmlns="http://www.w3.org/2000/svg">
<path d="M269.335 63.928C267.543 63.928 265.772 63.6507 264.023 63.096C262.274 62.5413 260.844 61.7733 259.735 60.792L263.383 53.688C264.151 54.3707 265.026 54.904 266.007 55.288C267.031 55.672 268.034 55.864 269.015 55.864C270.423 55.864 271.532 55.5227 272.343 54.84C273.196 54.2 273.964 53.112 274.647 51.576L276.439 47.352L277.207 46.264L289.559 16.568H299.159L283.607 53.112C282.498 55.8853 281.218 58.0613 279.767 59.64C278.359 61.2187 276.78 62.328 275.031 62.968C273.324 63.608 271.426 63.928 269.335 63.928ZM275.223 52.344L259.863 16.568H270.167L282.071 45.368L275.223 52.344Z" fill="white"/>
<path d="M252.228 51V44.28L251.588 42.808V30.776C251.588 28.6427 250.927 26.9787 249.604 25.784C248.324 24.5893 246.34 23.992 243.652 23.992C241.817 23.992 240.004 24.2907 238.212 24.888C236.463 25.4427 234.969 26.2107 233.732 27.192L230.148 20.216C232.025 18.8933 234.287 17.8693 236.932 17.144C239.577 16.4187 242.265 16.056 244.996 16.056C250.244 16.056 254.319 17.2933 257.22 19.768C260.121 22.2427 261.572 26.104 261.572 31.352V51H252.228ZM241.732 51.512C239.044 51.512 236.74 51.064 234.82 50.168C232.9 49.2293 231.428 47.9707 230.404 46.392C229.38 44.8133 228.868 43.0427 228.868 41.08C228.868 39.032 229.359 37.24 230.34 35.704C231.364 34.168 232.964 32.9733 235.14 32.12C237.316 31.224 240.153 30.776 243.652 30.776H252.804V36.6H244.74C242.393 36.6 240.772 36.984 239.876 37.752C239.023 38.52 238.596 39.48 238.596 40.632C238.596 41.912 239.087 42.936 240.068 43.704C241.092 44.4293 242.479 44.792 244.228 44.792C245.892 44.792 247.385 44.408 248.708 43.64C250.031 42.8293 250.991 41.656 251.588 40.12L253.124 44.728C252.399 46.9467 251.076 48.632 249.156 49.784C247.236 50.936 244.761 51.512 241.732 51.512Z" fill="white"/>
<path d="M185.983 51L172 8H180.534L192.601 46.2477H188.538L198.29 16.9105H205.953L215.416 46.2477H211.352L220.989 16.9105H229L217.68 51H208.914L200.612 25.8447H203.283L194.691 51H185.983Z" fill="white"/>
<path d="M160.633 51.512C156.708 51.512 153.252 50.744 150.266 49.208C147.322 47.672 145.039 45.5813 143.417 42.936C141.796 40.248 140.986 37.1973 140.986 33.784C140.986 30.328 141.775 27.2773 143.354 24.632C144.975 21.944 147.172 19.8533 149.945 18.36C152.719 16.824 155.855 16.056 159.354 16.056C162.724 16.056 165.753 16.7813 168.441 18.232C171.172 19.64 173.327 21.688 174.906 24.376C176.484 27.0213 177.273 30.2 177.273 33.912C177.273 34.296 177.252 34.744 177.21 35.256C177.167 35.7253 177.124 36.1733 177.081 36.6H149.113V30.776H171.833L167.993 32.504C167.993 30.712 167.631 29.1547 166.906 27.832C166.18 26.5093 165.178 25.4853 163.898 24.76C162.618 23.992 161.124 23.608 159.417 23.608C157.711 23.608 156.196 23.992 154.874 24.76C153.594 25.4853 152.591 26.5307 151.865 27.896C151.14 29.2187 150.777 30.7973 150.777 32.632V34.168C150.777 36.0453 151.183 37.7093 151.993 39.16C152.847 40.568 154.02 41.656 155.514 42.424C157.05 43.1493 158.841 43.512 160.889 43.512C162.724 43.512 164.324 43.2347 165.689 42.68C167.097 42.1253 168.377 41.2933 169.529 40.184L174.842 45.944C173.263 47.736 171.279 49.1227 168.889 50.104C166.5 51.0427 163.748 51.512 160.633 51.512Z" fill="white"/>
<path d="M109.865 51V44.984L130.217 20.92L131.945 24.248H110.313V16.568H140.009V22.584L119.657 46.648L117.865 43.32H140.585V51H109.865Z" fill="white"/>
<path d="M91.117 51.512C87.4477 51.512 84.1837 50.744 81.325 49.208C78.509 47.672 76.269 45.5813 74.605 42.936C72.9837 40.248 72.173 37.1973 72.173 33.784C72.173 30.328 72.9837 27.2773 74.605 24.632C76.269 21.944 78.509 19.8533 81.325 18.36C84.1837 16.824 87.4477 16.056 91.117 16.056C94.7437 16.056 97.9863 16.824 100.845 18.36C103.704 19.8533 105.944 21.9227 107.565 24.568C109.186 27.2133 109.997 30.2853 109.997 33.784C109.997 37.1973 109.186 40.248 107.565 42.936C105.944 45.5813 103.704 47.672 100.845 49.208C97.9863 50.744 94.7437 51.512 91.117 51.512ZM91.117 43.32C92.781 43.32 94.2743 42.936 95.597 42.168C96.9197 41.4 97.965 40.312 98.733 38.904C99.501 37.4533 99.885 35.7467 99.885 33.784C99.885 31.7787 99.501 30.072 98.733 28.664C97.965 27.256 96.9197 26.168 95.597 25.4C94.2743 24.632 92.781 24.248 91.117 24.248C89.453 24.248 87.9597 24.632 86.637 25.4C85.3143 26.168 84.2477 27.256 83.437 28.664C82.669 30.072 82.285 31.7787 82.285 33.784C82.285 35.7467 82.669 37.4533 83.437 38.904C84.2477 40.312 85.3143 41.4 86.637 42.168C87.9597 42.936 89.453 43.32 91.117 43.32Z" fill="white"/>
<path d="M52.1795 51.512C48.5102 51.512 45.2462 50.744 42.3875 49.208C39.5715 47.672 37.3315 45.5813 35.6675 42.936C34.0462 40.248 33.2355 37.1973 33.2355 33.784C33.2355 30.328 34.0462 27.2773 35.6675 24.632C37.3315 21.944 39.5715 19.8533 42.3875 18.36C45.2462 16.824 48.5102 16.056 52.1795 16.056C55.8062 16.056 59.0488 16.824 61.9075 18.36C64.7662 19.8533 67.0062 21.9227 68.6275 24.568C70.2488 27.2133 71.0595 30.2853 71.0595 33.784C71.0595 37.1973 70.2488 40.248 68.6275 42.936C67.0062 45.5813 64.7662 47.672 61.9075 49.208C59.0488 50.744 55.8062 51.512 52.1795 51.512ZM52.1795 43.32C53.8435 43.32 55.3368 42.936 56.6595 42.168C57.9822 41.4 59.0275 40.312 59.7955 38.904C60.5635 37.4533 60.9475 35.7467 60.9475 33.784C60.9475 31.7787 60.5635 30.072 59.7955 28.664C59.0275 27.256 57.9822 26.168 56.6595 25.4C55.3368 24.632 53.8435 24.248 52.1795 24.248C50.5155 24.248 49.0222 24.632 47.6995 25.4C46.3768 26.168 45.3102 27.256 44.4995 28.664C43.7315 30.072 43.3475 31.7787 43.3475 33.784C43.3475 35.7467 43.7315 37.4533 44.4995 38.904C45.3102 40.312 46.3768 41.4 47.6995 42.168C49.0222 42.936 50.5155 43.32 52.1795 43.32Z" fill="white"/>
<path d="M22.048 32.912C22.048 26.768 19.7867 23.696 15.264 23.696C14.2827 23.696 13.3013 23.824 12.32 24.08C11.3813 24.336 10.6133 24.656 10.016 25.04V42.384C10.4853 42.4693 11.0827 42.5547 11.808 42.64C12.5333 42.6827 13.3227 42.704 14.176 42.704C16.7787 42.704 18.7413 41.808 20.064 40.016C21.3867 38.224 22.048 35.856 22.048 32.912ZM31.776 33.168C31.776 35.856 31.3707 38.288 30.56 40.464C29.792 42.64 28.6613 44.496 27.168 46.032C25.6747 47.568 23.84 48.7627 21.664 49.616C19.488 50.4267 17.0133 50.832 14.24 50.832C13.088 50.832 11.872 50.768 10.592 50.64C9.35468 50.5547 8.11734 50.4267 6.88001 50.256C5.68534 50.0853 4.53334 49.8933 3.42401 49.68C2.31468 49.424 1.33334 49.168 0.480011 48.912V1.872L10.016 0.335999V17.104C11.0827 16.6347 12.192 16.272 13.344 16.016C14.496 15.76 15.7333 15.632 17.056 15.632C19.4453 15.632 21.5573 16.0587 23.392 16.912C25.2267 17.7227 26.7627 18.896 28 20.432C29.2373 21.968 30.176 23.824 30.816 26C31.456 28.1333 31.776 30.5227 31.776 33.168Z" fill="white"/>
</svg>
